<?xml version="1.0" standalone="no"?>
<!DOCTYPE svg PUBLIC "-//W3C//DTD SVG 20010904//EN"
 "http://www.w3.org/TR/2001/REC-SVG-20010904/DTD/svg10.dtd">
<svg version="1.0" xmlns="http://www.w3.org/2000/svg"
 width="550.000000pt" height="370.000000pt" viewBox="0 0 370.000000 370.000000"
 preserveAspectRatio="xMidYMid meet">

<g transform="translate(0.000000,370.000000) scale(0.100000,-0.100000)"
fill="#000000" stroke="none">
<path d="M0 1850 l0 -1850 1850 0 1850 0 0 1850 0 1850 -1850 0 -1850 0 0
-1850z m2125 1611 c255 -55 437 -166 500 -304 l25 -54 -2 -479 -3 -479 -175 0
-175 0 -2 354 c-1 195 -4 374 -8 396 -7 53 -63 142 -112 182 -158 126 -401
150 -584 57 -72 -36 -144 -107 -176 -173 l-28 -56 -5 -380 -5 -380 -167 -3
-168 -2 0 492 c0 563 -4 533 93 630 117 115 287 182 562 222 72 10 343 -4 430
-23z m638 -1392 c12 -7 25 -17 29 -23 4 -6 8 -418 8 -916 0 -498 -4 -910 -8
-916 -22 -33 -46 -34 -960 -34 -905 0 -909 0 -936 21 l-26 20 0 909 0 909 26
20 c27 21 31 21 936 21 666 0 915 -3 931 -11z"/>
<path d="M1836 1538 c-9 -12 -16 -25 -16 -29 0 -4 20 -28 45 -55 34 -35 45
-55 45 -79 0 -28 4 -32 43 -42 59 -16 120 -72 147 -135 18 -43 21 -64 17 -115
-8 -82 2 -93 75 -82 29 5 65 7 79 4 33 -7 39 10 39 113 0 128 -44 226 -144
320 -62 59 -135 97 -216 112 -77 15 -97 13 -114 -12z"/>
<path d="M1710 1527 c-154 -63 -252 -185 -280 -346 -13 -72 0 -179 26 -219 22
-33 61 -29 82 9 29 52 51 78 73 81 18 3 21 11 23 59 5 108 76 199 174 224 26
7 52 21 60 33 13 19 10 25 -32 70 -35 37 -46 57 -46 81 0 37 -7 38 -80 8z"/>
<path d="M1600 1007 c-6 -6 -24 -31 -40 -54 -22 -31 -37 -43 -55 -43 -14 0
-25 -3 -25 -6 0 -4 16 -28 36 -55 68 -93 187 -160 309 -173 77 -9 191 14 254
51 100 58 204 185 188 228 -6 15 -15 16 -71 10 -42 -4 -72 -2 -86 5 -18 9 -25
6 -54 -24 -68 -73 -192 -98 -282 -57 -37 17 -114 85 -114 101 0 4 -11 12 -25
18 -19 9 -27 9 -35 -1z"/>
</g>
</svg>
