<?xml version="1.0" encoding="UTF-8" standalone="no"?>
<svg
   xmlns:dc="http://purl.org/dc/elements/1.1/"
   xmlns:cc="http://creativecommons.org/ns#"
   xmlns:rdf="http://www.w3.org/1999/02/22-rdf-syntax-ns#"
   xmlns:svg="http://www.w3.org/2000/svg"
   xmlns="http://www.w3.org/2000/svg"
   xmlns:sodipodi="http://sodipodi.sourceforge.net/DTD/sodipodi-0.dtd"
   xmlns:inkscape="http://www.inkscape.org/namespaces/inkscape"
   xml:space="preserve"
   viewBox="0 0 345.01752 266.81354"
   y="0px"
   x="0px"
   id="logo"
   version="1.1"
   sodipodi:docname="logo_icpc.svg"
   width="570"
   height="350"
   inkscape:version="0.92.4 (5da689c313, 2019-01-14)"><sodipodi:namedview
   pagecolor="#ffffff"
   bordercolor="#666666"
   borderopacity="1"
   objecttolerance="10"
   gridtolerance="10"
   guidetolerance="10"
   inkscape:pageopacity="0"
   inkscape:pageshadow="2"
   inkscape:window-width="1916"
   inkscape:window-height="1110"
   id="namedview216"
   showgrid="false"
   fit-margin-top="0"
   fit-margin-left="0"
   fit-margin-right="0"
   fit-margin-bottom="0"
   inkscape:zoom="4.2247393"
   inkscape:cx="259.34995"
   inkscape:cy="202.55753"
   inkscape:window-x="1282"
   inkscape:window-y="88"
   inkscape:window-maximized="1"
   inkscape:current-layer="text989" /><metadata
   id="metadata429"><rdf:RDF><cc:Work
       rdf:about=""><dc:format>image/svg+xml</dc:format><dc:type
         rdf:resource="http://purl.org/dc/dcmitype/StillImage" /><dc:title></dc:title></cc:Work></rdf:RDF></metadata><defs
   id="defs427" />

<rect
   style="opacity:1;fill:#ffffff;fill-opacity:1;fill-rule:nonzero;stroke:none;stroke-width:6.49227381;stroke-miterlimit:4;stroke-dasharray:none;stroke-opacity:1"
   id="rect1641"
   width="345.01752"
   height="266.81354"
   x="0"
   y="0" /><g
   transform="translate(2.5087662,-0.26921976)"
   id="g406"><g
     id="g10"><g
       id="g8"><g
         id="g6"><path
           inkscape:connector-curvature="0"
           id="path4"
           d="m 106.793,143.352 v 0.431 l 0.277,0.179 v -0.426 c -0.01,-0.007 -0.018,-0.014 -0.029,-0.02 z"
           style="fill:#6082c0" /></g></g></g><g
     id="g18"><g
       id="g16"><g
         id="g14"><path
           inkscape:connector-curvature="0"
           id="path12"
           d="m 106.793,142.981 v 0.431 l 0.277,0.179 v -0.426 c -0.01,-0.007 -0.018,-0.014 -0.029,-0.02 z"
           style="fill:#6082c0" /></g></g></g><g
     id="g232"><g
       id="g230"><g
         id="g228"><g
           id="g116"><g
             id="g78"><g
               id="g76"><path
                 inkscape:connector-curvature="0"
                 id="path74"
                 d="m 308.1,108.442 -23.88,-0.003 c 10.522,7.855 16.469,16.017 17.682,24.261 0.965,6.593 -1.099,13.256 -6.134,19.806 l -0.203,0.264 c -9.154,11.672 -27.839,20.492 -35.45,23.742 -0.86,0.262 -1.724,0.518 -2.597,0.773 H 308.1 c 6.563,0 11.9,-5.363 11.9,-11.954 v -44.937 c 0,-6.591 -5.337,-11.952 -11.9,-11.952 z"
                 style="fill:#993022" /></g></g><g
             id="g84"><g
               id="g82"><path
                 inkscape:connector-curvature="0"
                 id="path80"
                 d="m 245.487,108.441 c -6.56,0 -11.897,5.363 -11.897,11.953 v 44.936 c 0,6.593 5.337,11.956 11.897,11.956 h 0.178 l 1.359,-0.451 c 30.525,-10.1 50.106,-25.404 51.094,-39.943 1.003,-14.636 -17.19,-26.701 -19.27,-28.028 l -0.552,-0.422 h -32.809 z"
                 style="fill:#993022" /></g></g><g
             id="g90"><g
               id="g88"><path
                 inkscape:connector-curvature="0"
                 id="path86"
                 d="m 298.117,136.891 c -0.987,14.539 -20.568,29.843 -51.094,39.943 l -1.359,0.451 h -0.178 c -6.56,0 -11.897,-5.363 -11.897,-11.956 v -44.936 c 0,-6.59 5.337,-11.953 11.897,-11.953 h 32.808 l 0.552,0.422 c 2.081,1.328 20.274,13.393 19.271,28.029 z"
                 style="fill:#993022" /></g></g><g
             id="g96"><g
               id="g94"><path
                 inkscape:connector-curvature="0"
                 id="path92"
                 d="m 304.709,52.448 c 0.329,-1.93 0.496,-3.85 0.496,-5.704 0,-9.156 -3.99,-16.627 -11.542,-21.604 -10.101,-6.656 -24.603,-6.871 -34.48,-0.499 -7.663,4.941 -11.712,12.911 -11.712,23.045 0,2.115 0.186,4.348 0.548,6.64 1.734,10.864 7.148,19.913 16.109,26.934 -4.554,-1.235 -10.503,-1.825 -13.078,2.353 -1.268,2.057 -0.958,4.052 0.831,5.336 3.312,2.376 11.36,1.747 16.22,-1.033 l -3.335,7.771 h 6.809 0.469 2.093 0.476 12.546 l -4.479,-8.961 c 5.418,2.265 11.699,4.312 15.092,2.243 1.379,-0.841 2.129,-2.21 2.226,-4.068 0.127,-2.497 -1.011,-3.843 -1.988,-4.531 -1.708,-1.209 -4.501,-1.512 -8.318,-0.896 0.395,-0.323 0.773,-0.646 1.147,-0.978 5.075,-4.522 11.601,-12.71 13.87,-26.048 z M 253.53,86.657 c -0.323,-0.231 -0.72,-0.522 -0.075,-1.565 1.94,-3.162 8.423,-1.949 13.694,0.147 -4.055,2.695 -11.52,2.927 -13.619,1.418 z m 42.857,-3.983 c 0.404,0.287 0.86,0.782 0.795,2.076 -0.052,0.9 -0.332,1.473 -0.88,1.809 -1.278,0.782 -4.557,0.936 -12.849,-2.565 5.059,-1.685 10.799,-2.823 12.934,-1.32 z m -16.49,-0.405 c -0.339,0.134 -0.593,0.235 -0.714,0.284 l -0.988,0.342 -0.473,0.231 0.016,0.029 -1.63,0.675 2.526,1.131 3.957,7.904 h -13.54 l 3.898,-9.094 -1.418,-0.844 c -11.793,-6.998 -18.769,-16.771 -20.724,-29.046 -0.336,-2.115 -0.509,-4.185 -0.509,-6.161 0,-9.153 3.602,-16.314 10.414,-20.708 8.977,-5.789 22.185,-5.59 31.393,0.482 6.721,4.433 10.271,11.102 10.271,19.29 0,1.669 -0.153,3.416 -0.453,5.192 -3.632,21.388 -18.968,28.98 -22.026,30.293 z"
                 style="fill:#993022" /></g></g><g
             id="g102"><g
               id="g100"><path
                 inkscape:connector-curvature="0"
                 id="path98"
                 d="m 283.021,107.885 -0.194,-0.135 c -0.003,-0.003 -0.036,-0.02 -0.088,-0.052 -0.802,-0.466 -6.829,-4.237 -8.126,-12.012 h -0.476 -2.093 -0.473 c 0.157,1.659 1.073,7.65 6.229,12.012 0.076,0.065 0.159,0.126 0.239,0.189 h 0.351 0.092 l 0.076,0.057 0.288,0.22 4.084,-0.003 -0.394,-0.276 z"
                 style="fill:#993022" /></g></g><g
             id="g108"><g
               id="g106"><path
                 inkscape:connector-curvature="0"
                 id="path104"
                 d="m 278.483,107.887 h -0.092 -0.351 c 0.117,0.093 0.233,0.186 0.351,0.278 h 0.457 l -0.288,-0.22 z"
                 style="fill:#993022" /></g></g><g
             id="g114"><g
               id="g112"><polygon
                 id="polygon110"
                 points="282.539,107.885 282.932,108.161 283.418,108.161 283.021,107.885 "
                 style="fill:#993022" /></g></g></g><g
           id="g122"><g
             id="g120"><path
               inkscape:connector-curvature="0"
               id="path118"
               d="m 167.543,113.652 12.797,3.59 -11.444,4.702 8.987,2.519 -6.252,5.097 v 13.745 h 5.271 l 1.825,-12.865 0.244,-0.103 c 13.677,-5.708 14.632,-18.803 14.681,-21.436 v -0.463 h -20.75 l -0.391,0.463 z"
               style="fill:#ecb941" /></g></g><g
           id="g128"><g
             id="g126"><path
               inkscape:connector-curvature="0"
               id="path124"
               d="m 160.099,122.522 11.125,-4.554 -9.557,-2.914 6.715,-6.154 0.447,-0.459 H 146.69 v 0.459 c 0.153,2.759 0.596,16.403 14.293,21.533 l 0.264,0.097 0.036,0.278 1.584,12.497 h 5.783 v -15.094 l 3.064,-2.519 z"
               style="fill:#ecb941" /></g></g><g
           id="g134"><g
             id="g132"><rect
               id="rect130"
               height="24.219"
               width="2.823"
               style="fill:#ecb941"
               y="56.817001"
               x="168.702" /></g></g><g
           id="g140"><g
             id="g138"><rect
               id="rect136"
               height="22.072001"
               width="2.822"
               style="fill:#ecb941"
               transform="matrix(0.4472,-0.8945,0.8945,0.4472,-8.6138,171.7834)"
               y="81.823997"
               x="133.248" /></g></g><g
           id="g146"><g
             id="g144"><rect
               id="rect142"
               height="23.702"
               width="2.823"
               style="fill:#ecb941"
               transform="matrix(0.6641,-0.7476,0.7476,0.6641,-13.2179,133.7254)"
               y="69.723"
               x="140.813" /></g></g><g
           id="g152"><g
             id="g150"><polygon
               id="polygon148"
               points="160.728,82.859 151.559,61.636 151.373,61.209 148.778,62.33 157.948,83.55 158.137,83.98 "
               style="fill:#ecb941" /></g></g><g
           id="g158"><g
             id="g156"><rect
               id="rect154"
               height="2.822"
               width="22.072001"
               style="fill:#ecb941"
               transform="matrix(0.8944,-0.4472,0.4472,0.8944,-19.8258,101.7305)"
               y="91.448997"
               x="194.535" /></g></g><g
           id="g164"><g
             id="g162"><rect
               id="rect160"
               height="2.823"
               width="23.702"
               style="fill:#ecb941"
               transform="matrix(0.7476,-0.6642,0.6642,0.7476,-4.196,152.1081)"
               y="80.163002"
               x="186.15401" /></g></g><g
           id="g170"><g
             id="g168"><rect
               id="rect166"
               height="2.8239999"
               width="23.584999"
               style="fill:#ecb941"
               transform="matrix(0.3971,-0.9178,0.9178,0.3971,45.1995,213.9928)"
               y="71.181999"
               x="173.68401" /></g></g><g
           id="g176"><g
             id="g174"><path
               inkscape:connector-curvature="0"
               id="path172"
               d="m 213.429,165.472 v -45.047 c 0,-6.607 -5.351,-11.981 -11.931,-11.981 h -4.289 l -0.019,0.462 c -0.353,9.674 -4.571,15.671 -8.063,19.005 -3.371,3.22 -6.678,4.636 -7.436,4.775 l -2.002,13.872 h -19.522 l -1.713,-13.761 c -14.686,-5.629 -15.245,-21.063 -15.409,-24.101 l -0.011,-0.255 -4.304,0.003 c -6.578,0 -11.931,5.375 -11.931,11.981 v 45.047 c 0,6.022 4.458,10.972 10.223,11.813 h 66.184 c 5.767,-0.841 10.223,-5.791 10.223,-11.813 z m -53.038,-15.641 h 19.408 v 2.862 h -19.408 z m 0,5.483 h 19.408 v 2.862 h -19.408 z m 13.379,13.828 h -7.643 v -2.862 h 7.643 z m 6.082,-5.483 h -19.408 v -2.862 h 19.408 z"
               style="fill:#ecb941" /></g></g><g
           id="g226"><g
             id="g182"><g
               id="g180"><path
                 inkscape:connector-curvature="0"
                 id="path178"
                 d="m 41.16,165.655 c -5.54,-2.295 -8.418,-5.036 -8.555,-8.147 -0.205,-4.802 6.155,-8.714 8.482,-9.979 -1.261,-2.765 -1.437,-5.329 -0.522,-7.625 1.682,-4.25 6.381,-5.948 6.58,-6.018 2.352,-1.085 4.617,-1.641 6.712,-1.641 1.44,0 2.819,0.264 4.097,0.786 3.498,1.421 5.381,4.378 6.134,5.851 2.281,-1.498 4.385,-2.257 6.257,-2.257 0.688,0 1.351,0.103 1.975,0.306 2.102,0.684 3.306,2.335 3.904,3.446 3.361,-2.975 7.344,-4.482 11.845,-4.482 8.394,0 16.288,5.308 18.509,6.936 l 0.054,0.038 v -22.483 c 0,-6.588 -5.353,-11.946 -11.931,-11.946 H 31.931 C 25.353,108.44 20,113.799 20,120.386 v 44.916 c 0,6.588 5.353,11.946 11.931,11.946 h 6.998 l -0.049,-0.115 c -1.565,-4.483 1.144,-9.619 2.28,-11.478 z"
                 style="fill:#6082c0" /></g></g><g
             id="g188"><g
               id="g186"><path
                 inkscape:connector-curvature="0"
                 id="path184"
                 d="m 69.936,188.325 c -4.074,0 -7.386,2.748 -7.386,6.128 0,3.38 3.312,6.128 7.386,6.128 4.074,0 7.39,-2.748 7.39,-6.128 0,-3.38 -3.315,-6.128 -7.39,-6.128 z m 0,9.899 c -2.774,0 -5.029,-1.692 -5.029,-3.771 0,-2.08 2.256,-3.771 5.029,-3.771 2.774,0 5.033,1.692 5.033,3.771 0,2.08 -2.259,3.771 -5.033,3.771 z"
                 style="fill:#6082c0" /></g></g><g
             id="g194"><g
               id="g192"><path
                 inkscape:connector-curvature="0"
                 id="path190"
                 d="m 54.527,194.489 c -3.296,0.335 -5.737,2.935 -5.446,5.798 0.281,2.76 2.996,4.51 6.458,4.158 3.46,-0.352 5.77,-2.612 5.49,-5.372 -0.292,-2.863 -3.209,-4.919 -6.502,-4.584 z m 0.796,7.831 c -1.824,0.185 -3.867,-0.441 -4.052,-2.255 -0.172,-1.69 1.385,-3.238 3.472,-3.45 2.084,-0.212 3.921,0.991 4.092,2.682 0.184,1.812 -1.692,2.838 -3.512,3.023 z"
                 style="fill:#6082c0" /></g></g><g
             id="g200"><g
               id="g198"><path
                 inkscape:connector-curvature="0"
                 id="path196"
                 d="m 106.528,146.973 -0.267,-0.202 c -6.446,-5.111 -12.419,-7.702 -17.754,-7.702 -0.966,0 -1.923,0.086 -2.846,0.255 -6.645,1.218 -9.838,6.508 -9.869,6.564 l -1.062,1.794 -0.312,-2.06 c -0.821,-5.364 -3.517,-5.719 -3.572,-5.727 -0.186,-0.038 -0.385,-0.057 -0.59,-0.057 -2.933,0 -6.822,3.898 -6.863,3.941 l -0.915,0.926 -0.333,-1.254 c -2.064,-7.681 -7.264,-7.842 -7.458,-7.845 -7.04,0.571 -9.761,3.783 -9.796,3.825 -3.514,3.96 0.245,8.171 0.684,8.636 l 0.738,0.77 -0.982,0.427 c -9.876,4.285 -9.308,7.912 -9.296,7.971 0.337,2.604 6.085,5.246 9.628,6.298 l 1.009,0.302 -0.624,0.852 c -5.668,7.724 -3.973,11.542 -3.567,12.223 l 0.123,0.337 H 94.7 c 6.578,0 11.929,-5.375 11.929,-11.982 l -0.06,-0.613 -0.279,-0.166 0.339,-0.298 z"
                 style="fill:#6082c0" /></g></g><g
             id="g206"><g
               id="g204"><path
                 inkscape:connector-curvature="0"
                 id="path202"
                 d="m 107.37,143.668 c -0.065,-0.042 -0.122,-0.088 -0.186,-0.133 v 0.426 l -0.277,-0.179 v 0.127 2.422 0.551 c 0.111,0.072 0.287,0.192 0.463,0.32 1.408,0.997 4.524,3.592 4.886,7.269 0.3,3.038 -1.349,6.167 -4.886,9.303 -0.042,0.042 -0.082,0.082 -0.127,0.121 l -0.336,0.297 -0.235,0.205 0.235,0.091 0.463,0.186 0.007,0.003 c 0.052,0.023 5.166,2.181 2.731,9.746 -0.036,0.117 -3.53,11.741 -17.765,11.741 h -0.121 c -0.078,0.013 -8.755,0.45 -20.291,-6.082 l -0.316,-0.176 -0.251,0.261 c -0.055,0.059 -5.632,5.789 -11.995,5.659 -0.081,0.016 -5.668,0.427 -9.303,-6.907 l -0.186,-0.368 -0.388,0.133 c -0.046,0.013 -4.244,1.405 -6.477,-0.694 -0.147,-0.137 -0.284,-0.293 -0.414,-0.463 h -0.616 l -0.003,-0.007 h -2.151 v 0.007 H 39.65 l 0.118,0.277 H 39.44 c 0.021,0.055 0.043,0.111 0.074,0.186 0.469,1.121 2.471,4.7 8.866,3.892 0.802,1.32 4.488,6.718 10.981,6.718 h 0.003 c 0.231,0.02 5.747,0.482 12.667,-5.163 1.767,0.913 11.177,5.561 19.404,5.561 0.759,0 1.509,-0.039 2.239,-0.124 0.205,0.003 13.162,0.101 18.726,-12.471 0.036,-0.072 3.423,-6.949 -1.454,-12.269 1.147,-1.095 4.531,-4.749 4.244,-9.56 -0.228,-3.934 -2.865,-7.601 -7.82,-10.906 z"
                 style="fill:#6082c0" /></g></g><g
             id="g212"><g
               id="g210"><path
                 inkscape:connector-curvature="0"
                 id="path208"
                 d="M 39.651,177.525 H 39.35 l 0.032,0.117 c 0,0.004 0.025,0.071 0.059,0.159 h 0.328 z"
                 style="fill:#6082c0" /></g></g><g
             id="g218"><g
               id="g216"><path
                 inkscape:connector-curvature="0"
                 id="path214"
                 d="m 106.907,143.352 v 0.431 l 0.277,0.179 v -0.426 c -0.01,-0.007 -0.018,-0.014 -0.029,-0.02 z"
                 style="fill:#6082c0" /></g></g><g
             id="g224"><g
               id="g222"><path
                 inkscape:connector-curvature="0"
                 id="path220"
                 d="m 41.801,199.085 c -3.244,0 -5.255,1.525 -5.255,3.979 0,2.455 2.012,3.979 5.255,3.979 3.24,0 5.253,-1.525 5.253,-3.979 0,-2.454 -2.013,-3.979 -5.253,-3.979 z m -0.003,5.846 c -1.456,0 -3.196,-0.321 -3.196,-1.867 0,-1.542 1.74,-1.863 3.196,-1.863 1.459,0 3.199,0.322 3.199,1.863 0,1.546 -1.74,1.867 -3.199,1.867 z"
                 style="fill:#6082c0" /></g></g></g></g></g></g><g
     id="g362"><g
       id="g342"><g
         id="g266"><g
           id="g240"><rect
             id="rect234"
             height="9.4689999"
             width="2.533"
             style="fill:#074473"
             y="211.806"
             x="191.42599" /><g
             id="g238"><path
               inkscape:connector-curvature="0"
               id="path236"
               d="m 192.692,210.702 c -0.848,0 -1.464,-0.447 -1.464,-1.062 0,-0.636 0.643,-1.135 1.464,-1.135 0.821,0 1.464,0.499 1.464,1.135 0,0.615 -0.616,1.062 -1.464,1.062 z"
               style="fill:#074473" /></g></g><path
           inkscape:connector-curvature="0"
           id="path242"
           d="m 126.503,208.453 h 2.64 v 12.822 h -2.64 z"
           style="fill:#074473" /><path
           inkscape:connector-curvature="0"
           id="path244"
           d="m 131.675,211.806 h 2.481 v 1.121 c 0.713,-0.908 1.676,-1.371 2.873,-1.371 2.087,0 3.121,1.087 3.121,3.263 v 6.456 h -2.533 v -5.726 c 0,-1.283 -0.375,-1.888 -1.464,-1.888 -1.176,0 -1.945,0.748 -1.945,1.995 v 5.619 h -2.534 v -9.469 z"
           style="fill:#074473" /><path
           inkscape:connector-curvature="0"
           id="path246"
           d="m 145.092,221.399 c -2.088,0 -2.533,-0.713 -2.533,-2.695 v -5.115 h -1.249 v -1.783 h 1.249 v -2.587 h 2.515 v 2.587 h 1.463 v 1.783 h -1.463 v 5.241 c 0,0.501 0.16,0.608 0.839,0.608 h 0.624 v 1.906 c -0.695,0.02 -1.178,0.055 -1.445,0.055 z"
           style="fill:#074473" /><path
           inkscape:connector-curvature="0"
           id="path248"
           d="m 150.141,215.549 c 0.108,-1.283 0.767,-1.96 1.855,-1.96 1.179,0 1.838,0.677 1.874,1.96 z m 3.693,2.855 c -0.321,0.73 -0.873,1.052 -1.73,1.052 -1.231,0 -1.892,-0.768 -1.963,-2.249 h 6.334 c 0.017,-0.229 0.017,-0.444 0.017,-0.658 0,-3.262 -1.658,-5.081 -4.548,-5.081 -2.732,0 -4.427,1.908 -4.427,5.009 0,3.191 1.768,5.12 4.46,5.12 2.249,0 3.872,-1.214 4.39,-3.193 z"
           style="fill:#074473" /><path
           inkscape:connector-curvature="0"
           id="path250"
           d="m 158.17,211.806 h 2.354 v 1.621 c 0.661,-1.302 1.516,-1.889 2.731,-1.889 0.124,0 0.249,0 0.375,0.017 v 2.568 h -0.839 c -1.373,0 -2.087,0.713 -2.087,2.139 v 5.013 h -2.534 z"
           style="fill:#074473" /><path
           inkscape:connector-curvature="0"
           id="path252"
           d="m 165.02,211.806 h 2.48 v 1.121 c 0.713,-0.908 1.677,-1.371 2.873,-1.371 2.087,0 3.122,1.087 3.122,3.263 v 6.456 h -2.533 v -5.726 c 0,-1.283 -0.376,-1.888 -1.464,-1.888 -1.177,0 -1.943,0.748 -1.943,1.995 v 5.619 h -2.535 z"
           style="fill:#074473" /><path
           inkscape:connector-curvature="0"
           id="path254"
           d="m 181.059,216.62 v 0.89 c 0,1.34 -0.838,2.158 -2.212,2.158 -0.767,0 -1.249,-0.444 -1.249,-1.138 0,-0.734 0.392,-1.037 1.194,-1.268 0.483,-0.144 1.303,-0.196 2.267,-0.642 z m 0.036,3.477 c 0.017,0.446 0.107,0.837 0.285,1.178 h 2.64 v -0.429 c -0.427,-0.215 -0.535,-0.625 -0.535,-1.319 v -5.387 c 0,-1.71 -1.427,-2.673 -4.104,-2.673 -2.443,0 -3.871,1.194 -3.871,3.12 v 0.177 h 2.373 v -0.143 c 0,-0.748 0.553,-1.175 1.589,-1.175 1.087,0 1.551,0.284 1.551,1.07 0,0.909 -0.678,0.766 -2.64,1.069 -2.213,0.339 -3.211,1.159 -3.211,3.015 0,1.944 1.053,3.015 2.871,3.015 1.375,-0.001 2.428,-0.538 3.052,-1.518 z"
           style="fill:#074473" /><path
           inkscape:connector-curvature="0"
           id="path256"
           d="m 188.464,221.399 c -2.087,0 -2.534,-0.713 -2.534,-2.695 v -5.115 h -1.249 v -1.783 h 1.249 v -2.587 h 2.516 v 2.587 h 1.463 v 1.783 h -1.463 v 5.241 c 0,0.501 0.16,0.608 0.838,0.608 h 0.625 v 1.906 c -0.696,0.02 -1.178,0.055 -1.445,0.055 z"
           style="fill:#074473" /><path
           inkscape:connector-curvature="0"
           id="path258"
           d="m 198.311,216.531 c 0,-1.891 0.821,-2.925 2.231,-2.925 1.409,0 2.212,1.034 2.212,2.925 0,1.889 -0.803,2.943 -2.212,2.943 -1.41,0.001 -2.231,-1.053 -2.231,-2.943 z m -2.569,0 c 0,3.156 1.82,5.066 4.8,5.066 2.98,0 4.798,-1.91 4.798,-5.066 0,-3.156 -1.818,-5.064 -4.798,-5.064 -2.98,0 -4.8,1.908 -4.8,5.064 z"
           style="fill:#074473" /><path
           inkscape:connector-curvature="0"
           id="path260"
           d="m 207.071,211.806 h 2.48 v 1.121 c 0.713,-0.908 1.677,-1.371 2.873,-1.371 2.088,0 3.121,1.087 3.121,3.263 v 6.456 h -2.533 v -5.726 c 0,-1.283 -0.376,-1.888 -1.464,-1.888 -1.176,0 -1.943,0.748 -1.943,1.995 v 5.619 h -2.534 z"
           style="fill:#074473" /><path
           inkscape:connector-curvature="0"
           id="path262"
           d="m 223.11,216.62 v 0.89 c 0,1.34 -0.838,2.158 -2.212,2.158 -0.768,0 -1.249,-0.444 -1.249,-1.138 0,-0.734 0.393,-1.037 1.194,-1.268 0.483,-0.144 1.303,-0.196 2.267,-0.642 z m 0.036,3.477 c 0.017,0.446 0.107,0.837 0.285,1.178 h 2.64 v -0.429 c -0.427,-0.215 -0.535,-0.625 -0.535,-1.319 v -5.387 c 0,-1.71 -1.427,-2.673 -4.104,-2.673 -2.444,0 -3.871,1.194 -3.871,3.12 v 0.177 h 2.373 v -0.143 c 0,-0.748 0.553,-1.175 1.588,-1.175 1.089,0 1.552,0.284 1.552,1.07 0,0.909 -0.679,0.766 -2.64,1.069 -2.213,0.339 -3.212,1.159 -3.212,3.015 0,1.944 1.053,3.015 2.873,3.015 1.374,-0.001 2.426,-0.538 3.051,-1.518 z"
           style="fill:#074473" /><path
           inkscape:connector-curvature="0"
           id="path264"
           d="m 227.838,208.453 h 2.533 v 12.822 h -2.533 z"
           style="fill:#074473" /></g><g
         id="g282"><path
           inkscape:connector-curvature="0"
           id="path268"
           d="m 251.102,240.464 c -3.75,0 -5.961,-2.461 -5.961,-6.759 0,-4.369 2.193,-6.759 6.19,-6.759 3.275,0 5.222,1.693 5.397,4.584 h -2.582 c -0.213,-1.445 -1.185,-2.23 -2.815,-2.23 -2.298,0 -3.519,1.534 -3.519,4.405 0,2.817 1.256,4.369 3.431,4.369 1.592,0 2.638,-0.839 2.938,-2.373 h 2.565 c -0.193,2.89 -2.353,4.763 -5.644,4.763 z"
           style="fill:#074473" /><path
           inkscape:connector-curvature="0"
           id="path270"
           d="m 260.694,235.362 c 0,-1.889 0.814,-2.924 2.21,-2.924 1.398,0 2.193,1.035 2.193,2.924 0,1.891 -0.795,2.943 -2.193,2.943 -1.396,0 -2.21,-1.052 -2.21,-2.943 z m -2.549,0 c 0,3.158 1.803,5.066 4.758,5.066 2.955,0 4.76,-1.908 4.76,-5.066 0,-3.156 -1.805,-5.064 -4.76,-5.064 -2.955,0 -4.758,1.909 -4.758,5.064 z"
           style="fill:#074473" /><path
           inkscape:connector-curvature="0"
           id="path272"
           d="m 269.38,230.637 h 2.458 v 1.123 c 0.71,-0.911 1.663,-1.374 2.852,-1.374 2.068,0 3.095,1.088 3.095,3.265 v 6.456 h -2.513 v -5.726 c 0,-1.283 -0.372,-1.889 -1.45,-1.889 -1.17,0 -1.929,0.747 -1.929,1.996 v 5.619 h -2.513 z"
           style="fill:#074473" /><path
           inkscape:connector-curvature="0"
           id="path274"
           d="m 282.685,240.23 c -2.07,0 -2.511,-0.711 -2.511,-2.691 v -5.118 h -1.24 v -1.784 h 1.24 v -2.588 h 2.494 v 2.588 h 1.451 v 1.784 h -1.451 v 5.242 c 0,0.499 0.159,0.608 0.831,0.608 h 0.62 v 1.908 c -0.691,0.017 -1.169,0.051 -1.434,0.051 z"
           style="fill:#074473" /><path
           inkscape:connector-curvature="0"
           id="path276"
           d="m 287.692,234.382 c 0.106,-1.283 0.762,-1.961 1.841,-1.961 1.167,0 1.822,0.677 1.857,1.961 z m 3.663,2.852 c -0.317,0.732 -0.866,1.054 -1.716,1.054 -1.221,0 -1.876,-0.768 -1.947,-2.247 h 6.282 c 0.019,-0.234 0.019,-0.446 0.019,-0.66 0,-3.263 -1.647,-5.083 -4.512,-5.083 -2.709,0 -4.389,1.908 -4.389,5.011 0,3.191 1.751,5.118 4.424,5.118 2.229,0 3.838,-1.212 4.351,-3.193 z"
           style="fill:#074473" /><path
           inkscape:connector-curvature="0"
           id="path278"
           d="m 297.637,237.022 c 0.035,0.963 0.672,1.426 1.964,1.426 1.008,0 1.54,-0.358 1.54,-0.945 0,-0.823 -0.814,-0.766 -2.479,-1.195 -2.21,-0.572 -3.254,-1.25 -3.254,-2.855 0,-1.908 1.45,-3.156 3.857,-3.156 2.529,0 4.017,1.195 4.105,3.227 h -2.442 c -0.035,-0.801 -0.62,-1.266 -1.647,-1.266 -0.956,0 -1.415,0.286 -1.415,0.875 0,0.658 0.778,0.73 2.565,1.159 2.177,0.515 3.239,1.121 3.239,2.836 0,2.139 -1.521,3.299 -4.406,3.299 -2.619,0 -4.141,-1.266 -4.141,-3.299 v -0.107 h 2.514 z"
           style="fill:#074473" /><path
           inkscape:connector-curvature="0"
           id="path280"
           d="m 308.057,240.23 c -2.07,0 -2.511,-0.711 -2.511,-2.691 v -5.118 h -1.24 v -1.784 h 1.24 v -2.588 h 2.494 v 2.588 h 1.45 v 1.784 h -1.45 v 5.242 c 0,0.499 0.159,0.608 0.831,0.608 h 0.62 v 1.908 c -0.691,0.017 -1.169,0.051 -1.434,0.051 z"
           style="fill:#074473" /></g><g
         id="g310"><path
           inkscape:connector-curvature="0"
           id="path284"
           d="m 242.008,221.631 c -3.694,0 -5.87,-2.461 -5.87,-6.759 0,-4.368 2.159,-6.758 6.096,-6.758 3.222,0 5.137,1.696 5.313,4.583 h -2.544 c -0.21,-1.445 -1.167,-2.229 -2.77,-2.229 -2.264,0 -3.466,1.534 -3.466,4.404 0,2.819 1.237,4.369 3.38,4.369 1.566,0 2.595,-0.837 2.889,-2.373 h 2.527 c -0.192,2.89 -2.315,4.763 -5.555,4.763 z"
           style="fill:#074473" /><path
           inkscape:connector-curvature="0"
           id="path286"
           d="m 251.449,216.531 c 0,-1.891 0.801,-2.925 2.176,-2.925 1.377,0 2.16,1.034 2.16,2.925 0,1.889 -0.783,2.943 -2.16,2.943 -1.374,0.001 -2.176,-1.053 -2.176,-2.943 z m -2.51,0 c 0,3.156 1.779,5.066 4.687,5.066 2.909,0 4.687,-1.91 4.687,-5.066 0,-3.156 -1.777,-5.064 -4.687,-5.064 -2.908,0 -4.687,1.908 -4.687,5.064 z"
           style="fill:#074473" /><path
           inkscape:connector-curvature="0"
           id="path288"
           d="m 260.087,208.453 h 2.474 v 12.822 h -2.474 z"
           style="fill:#074473" /><path
           inkscape:connector-curvature="0"
           id="path290"
           d="m 264.879,208.453 h 2.474 v 12.822 h -2.474 z"
           style="fill:#074473" /><path
           inkscape:connector-curvature="0"
           id="path292"
           d="m 271.671,215.549 c 0.105,-1.283 0.748,-1.96 1.813,-1.96 1.149,0 1.794,0.677 1.829,1.96 z m 3.607,2.855 c -0.312,0.73 -0.853,1.052 -1.689,1.052 -1.203,0 -1.848,-0.768 -1.918,-2.249 h 6.186 c 0.016,-0.229 0.016,-0.444 0.016,-0.658 0,-3.262 -1.619,-5.081 -4.442,-5.081 -2.666,0 -4.32,1.908 -4.32,5.009 0,3.191 1.724,5.12 4.355,5.12 2.194,0 3.78,-1.214 4.286,-3.193 z"
           style="fill:#074473" /><path
           inkscape:connector-curvature="0"
           id="path294"
           d="m 281.531,216.388 c 0,-1.767 0.75,-2.746 1.987,-2.746 1.288,0 2.038,0.962 2.038,2.711 0,1.837 -0.715,2.8 -2.003,2.8 -1.291,0 -2.022,-0.983 -2.022,-2.765 z m -2.23,5.796 c 0.105,1.855 1.568,2.96 4.06,2.96 1.531,0 2.681,-0.339 3.396,-0.909 0.992,-0.802 1.202,-1.872 1.202,-3.585 v -8.844 h -2.35 v 1.14 c -0.559,-0.997 -1.43,-1.478 -2.667,-1.478 -2.351,0 -3.918,1.891 -3.918,5.009 0,2.907 1.568,4.798 3.953,4.798 1.237,0 2.057,-0.41 2.579,-1.338 v 0.837 c 0,1.677 -0.419,2.356 -2.073,2.356 -0.836,0 -1.323,-0.322 -1.481,-0.947 h -2.701 z"
           style="fill:#074473" /><path
           inkscape:connector-curvature="0"
           id="path296"
           d="m 300.133,216.62 v 0.89 c 0,1.34 -0.818,2.158 -2.159,2.158 -0.748,0 -1.218,-0.444 -1.218,-1.138 0,-0.734 0.382,-1.037 1.167,-1.268 0.47,-0.144 1.271,-0.196 2.21,-0.642 z m 0.038,3.477 c 0.016,0.446 0.105,0.837 0.277,1.178 h 2.579 v -0.429 c -0.417,-0.215 -0.522,-0.625 -0.522,-1.319 v -5.387 c 0,-1.71 -1.395,-2.673 -4.007,-2.673 -2.387,0 -3.781,1.194 -3.781,3.12 v 0.177 h 2.316 v -0.143 c 0,-0.748 0.54,-1.175 1.551,-1.175 1.062,0 1.516,0.284 1.516,1.07 0,0.909 -0.662,0.766 -2.579,1.069 -2.16,0.339 -3.135,1.159 -3.135,3.015 0,1.944 1.027,3.015 2.805,3.015 1.34,-0.001 2.369,-0.538 2.98,-1.518 z"
           style="fill:#074473" /><path
           inkscape:connector-curvature="0"
           id="path298"
           d="m 307.364,221.399 c -2.038,0 -2.474,-0.713 -2.474,-2.695 v -5.115 h -1.218 v -1.783 h 1.218 v -2.587 h 2.455 v 2.587 h 1.43 v 1.783 h -1.43 v 5.241 c 0,0.501 0.158,0.608 0.82,0.608 h 0.61 v 1.906 c -0.68,0.02 -1.15,0.055 -1.411,0.055 z"
           style="fill:#074473" /><path
           inkscape:connector-curvature="0"
           id="path300"
           d="m 312.293,215.549 c 0.105,-1.283 0.748,-1.96 1.812,-1.96 1.149,0 1.794,0.677 1.829,1.96 z m 3.606,2.855 c -0.314,0.73 -0.853,1.052 -1.689,1.052 -1.204,0 -1.847,-0.768 -1.917,-2.249 h 6.184 c 0.016,-0.229 0.016,-0.444 0.016,-0.658 0,-3.262 -1.619,-5.081 -4.442,-5.081 -2.665,0 -4.319,1.908 -4.319,5.009 0,3.191 1.724,5.12 4.354,5.12 2.196,0 3.781,-1.214 4.286,-3.193 z"
           style="fill:#074473" /><g
           id="g308"><g
             id="g304"><path
               inkscape:connector-curvature="0"
               id="path302"
               d="m 291.426,210.702 c -0.848,0 -1.464,-0.447 -1.464,-1.062 0,-0.636 0.643,-1.135 1.464,-1.135 0.821,0 1.464,0.499 1.464,1.135 0,0.615 -0.616,1.062 -1.464,1.062 z"
               style="fill:#074473" /></g><rect
             id="rect306"
             height="9.4689999"
             width="2.474"
             style="fill:#074473"
             y="211.806"
             x="290.189" /></g></g><g
         id="g340"><path
           inkscape:connector-curvature="0"
           id="path312"
           d="m 129.121,233.223 v -3.709 h 2.69 c 1.22,0 1.822,0.642 1.822,1.853 0,1.319 -0.62,1.855 -1.965,1.855 h -2.547 z m 0,2.32 h 3.22 c 2.513,0 3.892,-1.5 3.892,-4.14 0,-2.693 -1.379,-4.119 -4.069,-4.119 h -5.662 v 12.824 h 2.618 v -4.565 z"
           style="fill:#074473" /><path
           inkscape:connector-curvature="0"
           id="path314"
           d="m 138.092,230.637 h 2.335 v 1.622 c 0.655,-1.3 1.504,-1.889 2.707,-1.889 0.123,0 0.248,0 0.372,0.017 v 2.569 h -0.832 c -1.362,0 -2.069,0.715 -2.069,2.139 v 5.013 h -2.513 z"
           style="fill:#074473" /><path
           inkscape:connector-curvature="0"
           id="path316"
           d="m 146.955,235.362 c 0,-1.889 0.814,-2.924 2.212,-2.924 1.397,0 2.193,1.035 2.193,2.924 0,1.891 -0.796,2.943 -2.193,2.943 -1.398,0 -2.212,-1.052 -2.212,-2.943 z m -2.547,0 c 0,3.158 1.804,5.066 4.759,5.066 2.955,0 4.759,-1.908 4.759,-5.066 0,-3.156 -1.804,-5.064 -4.759,-5.064 -2.955,0.001 -4.759,1.909 -4.759,5.064 z"
           style="fill:#074473" /><path
           inkscape:connector-curvature="0"
           id="path318"
           d="m 157.695,235.221 c 0,-1.767 0.761,-2.747 2.018,-2.747 1.309,0 2.069,0.964 2.069,2.712 0,1.837 -0.726,2.8 -2.036,2.8 -1.308,-10e-4 -2.051,-0.983 -2.051,-2.765 z m -2.265,5.796 c 0.107,1.855 1.592,2.96 4.122,2.96 1.558,0 2.726,-0.339 3.451,-0.909 1.008,-0.802 1.22,-1.872 1.22,-3.585 v -8.846 h -2.388 v 1.14 c -0.567,-0.999 -1.45,-1.479 -2.707,-1.479 -2.389,0 -3.981,1.889 -3.981,5.011 0,2.905 1.592,4.799 4.016,4.799 1.255,0 2.087,-0.412 2.618,-1.34 v 0.839 c 0,1.677 -0.426,2.354 -2.105,2.354 -0.85,0 -1.345,-0.32 -1.505,-0.944 z"
           style="fill:#074473" /><path
           inkscape:connector-curvature="0"
           id="path320"
           d="m 166.435,230.637 h 2.335 v 1.622 c 0.655,-1.3 1.504,-1.889 2.708,-1.889 0.123,0 0.247,0 0.37,0.017 v 2.569 h -0.831 c -1.362,0 -2.071,0.715 -2.071,2.139 v 5.013 h -2.512 v -9.471 z"
           style="fill:#074473" /><path
           inkscape:connector-curvature="0"
           id="path322"
           d="m 178.573,235.451 v 0.892 c 0,1.34 -0.832,2.158 -2.194,2.158 -0.761,0 -1.239,-0.444 -1.239,-1.14 0,-0.732 0.389,-1.035 1.185,-1.266 0.478,-0.144 1.292,-0.196 2.248,-0.644 z m 0.036,3.479 c 0.017,0.446 0.105,0.837 0.283,1.178 h 2.618 v -0.429 c -0.425,-0.215 -0.53,-0.625 -0.53,-1.321 v -5.385 c 0,-1.71 -1.416,-2.674 -4.07,-2.674 -2.425,0 -3.839,1.195 -3.839,3.12 v 0.179 h 2.353 v -0.143 c 0,-0.749 0.548,-1.178 1.574,-1.178 1.08,0 1.54,0.286 1.54,1.071 0,0.911 -0.674,0.768 -2.619,1.071 -2.194,0.339 -3.185,1.159 -3.185,3.015 0,1.944 1.044,3.015 2.849,3.015 1.362,-0.002 2.406,-0.539 3.026,-1.519 z"
           style="fill:#074473" /><path
           inkscape:connector-curvature="0"
           id="path324"
           d="m 183.173,230.637 h 2.388 v 1.052 c 0.691,-0.875 1.558,-1.319 2.601,-1.319 1.186,0 2,0.427 2.618,1.391 0.655,-0.911 1.557,-1.391 2.672,-1.391 1.875,0 3.078,1.176 3.078,3.12 v 6.618 h -2.476 v -6.101 c 0,-0.928 -0.531,-1.445 -1.398,-1.445 -0.956,0 -1.592,0.677 -1.592,1.803 v 5.743 h -2.459 v -6.082 c 0,-0.947 -0.513,-1.464 -1.363,-1.464 -0.956,0 -1.592,0.677 -1.592,1.82 v 5.726 h -2.477 z"
           style="fill:#074473" /><path
           inkscape:connector-curvature="0"
           id="path326"
           d="m 198.69,230.637 h 2.39 v 1.052 c 0.689,-0.875 1.557,-1.319 2.6,-1.319 1.185,0 1.999,0.427 2.618,1.391 0.654,-0.911 1.558,-1.391 2.67,-1.391 1.876,0 3.08,1.176 3.08,3.12 v 6.618 h -2.477 v -6.101 c 0,-0.928 -0.531,-1.445 -1.398,-1.445 -0.956,0 -1.592,0.677 -1.592,1.803 v 5.743 h -2.458 v -6.082 c 0,-0.947 -0.513,-1.464 -1.363,-1.464 -0.956,0 -1.592,0.677 -1.592,1.82 v 5.726 h -2.477 v -9.471 z"
           style="fill:#074473" /><path
           inkscape:connector-curvature="0"
           id="path328"
           d="m 219.019,230.637 h 2.458 v 1.123 c 0.709,-0.911 1.664,-1.374 2.849,-1.374 2.07,0 3.097,1.088 3.097,3.265 v 6.456 h -2.513 v -5.726 c 0,-1.283 -0.372,-1.889 -1.45,-1.889 -1.168,0 -1.928,0.747 -1.928,1.996 v 5.619 h -2.513 z"
           style="fill:#074473" /><path
           inkscape:connector-curvature="0"
           id="path330"
           d="m 231.634,235.221 c 0,-1.767 0.761,-2.747 2.017,-2.747 1.309,0 2.07,0.964 2.07,2.712 0,1.837 -0.726,2.8 -2.035,2.8 -1.309,-10e-4 -2.052,-0.983 -2.052,-2.765 z m -2.265,5.796 c 0.105,1.855 1.592,2.96 4.123,2.96 1.557,0 2.724,-0.339 3.45,-0.909 1.008,-0.802 1.221,-1.872 1.221,-3.585 v -8.846 h -2.39 v 1.14 c -0.566,-0.999 -1.45,-1.479 -2.707,-1.479 -2.388,0 -3.98,1.889 -3.98,5.011 0,2.905 1.592,4.799 4.016,4.799 1.255,0 2.088,-0.412 2.618,-1.34 v 0.839 c 0,1.677 -0.426,2.354 -2.106,2.354 -0.849,0 -1.344,-0.32 -1.505,-0.944 z"
           style="fill:#074473" /><g
           id="g338"><g
             id="g334"><path
               inkscape:connector-curvature="0"
               id="path332"
               d="m 215.545,229.532 c -0.848,0 -1.464,-0.447 -1.464,-1.062 0,-0.636 0.643,-1.135 1.464,-1.135 0.821,0 1.464,0.499 1.464,1.135 0,0.616 -0.616,1.062 -1.464,1.062 z"
               style="fill:#074473" /></g><rect
             id="rect336"
             height="9.4709997"
             width="2.5120001"
             style="fill:#074473"
             y="230.63699"
             x="214.261" /></g></g></g><g
       id="g360"><g
         id="g354"><g
           id="g352"><path
             inkscape:connector-curvature="0"
             id="path344"
             d="m 27.951,212.955 h 4.741 v 26.219 h -4.741 z"
             style="fill:#6082c0" /><path
             inkscape:connector-curvature="0"
             id="path346"
             d="m 56.976,214.234 c 1.96,1.443 3.139,3.927 3.537,7.453 h -4.534 c -0.277,-1.623 -0.907,-2.972 -1.891,-4.046 -0.985,-1.074 -2.565,-1.611 -4.741,-1.611 -2.971,0 -5.096,1.376 -6.374,4.127 -0.829,1.785 -1.243,3.988 -1.243,6.608 0,2.637 0.587,4.856 1.762,6.658 1.175,1.802 3.023,2.702 5.545,2.702 1.934,0 3.467,-0.559 4.599,-1.678 1.131,-1.119 1.913,-2.65 2.345,-4.594 h 4.534 c -0.518,3.493 -1.814,6.047 -3.887,7.662 -2.073,1.615 -4.724,2.423 -7.954,2.423 -3.627,0 -6.52,-1.258 -8.679,-3.775 -2.159,-2.517 -3.239,-5.661 -3.239,-9.432 0,-4.624 1.183,-8.223 3.55,-10.798 2.366,-2.574 5.38,-3.862 9.042,-3.862 3.124,-0.002 5.667,0.72 7.628,2.163 z"
             style="fill:#6082c0" /><path
             inkscape:connector-curvature="0"
             id="path348"
             d="m 64.787,212.955 h 4.56 v 3.493 c 0.935,-1.197 1.957,-2.123 3.065,-2.779 1.576,-0.984 3.429,-1.476 5.559,-1.476 3.152,0 5.828,1.144 8.027,3.431 2.199,2.287 3.299,5.555 3.299,9.801 0,5.74 -1.587,9.839 -4.76,12.298 -2.012,1.557 -4.353,2.337 -7.023,2.337 -2.098,0 -3.858,-0.435 -5.28,-1.304 -0.832,-0.492 -1.76,-1.336 -2.783,-2.534 v 13.454 h -4.664 z m 17.546,20.648 c 1.447,-1.73 2.171,-4.317 2.171,-7.76 0,-2.099 -0.321,-3.902 -0.962,-5.411 -1.213,-2.902 -3.432,-4.353 -6.655,-4.353 -3.241,0 -5.46,1.534 -6.655,4.6 -0.641,1.64 -0.962,3.722 -0.962,6.247 0,2.033 0.32,3.763 0.962,5.19 1.213,2.722 3.432,4.083 6.655,4.083 2.184,-0.001 3.999,-0.866 5.446,-2.596 z"
             style="fill:#6082c0" /><path
             inkscape:connector-curvature="0"
             id="path350"
             d="m 113.017,214.234 c 1.96,1.443 3.139,3.927 3.537,7.453 h -4.535 c -0.276,-1.623 -0.906,-2.972 -1.891,-4.046 -0.984,-1.074 -2.565,-1.611 -4.742,-1.611 -2.971,0 -5.096,1.376 -6.374,4.127 -0.829,1.785 -1.243,3.988 -1.243,6.608 0,2.637 0.587,4.856 1.762,6.658 1.175,1.802 3.023,2.702 5.545,2.702 1.934,0 3.467,-0.559 4.599,-1.678 1.131,-1.119 1.913,-2.65 2.344,-4.594 h 4.535 c -0.518,3.493 -1.814,6.047 -3.887,7.662 -2.073,1.615 -4.724,2.423 -7.954,2.423 -3.627,0 -6.52,-1.258 -8.679,-3.775 -2.159,-2.517 -3.239,-5.661 -3.239,-9.432 0,-4.624 1.183,-8.223 3.55,-10.798 2.366,-2.574 5.38,-3.862 9.042,-3.862 3.126,-0.002 5.67,0.72 7.63,2.163 z"
             style="fill:#6082c0" /></g></g><g
         id="g358"><path
           inkscape:connector-curvature="0"
           id="path356"
           d="m 30.323,208.472 c -2.253,0 -3.887,-1.186 -3.887,-2.82 0,-1.69 1.708,-3.014 3.887,-3.014 2.179,0 3.886,1.324 3.886,3.014 0,1.634 -1.635,2.82 -3.886,2.82 z"
           style="fill:#6082c0" /></g></g></g><g
     id="g366"><path
       inkscape:connector-curvature="0"
       id="path364"
       d="m 39.886,177.405 h -0.301 l 0.032,0.117 c 0,0.004 0.025,0.071 0.059,0.159 h 0.328 z"
       style="fill:#6082c0" /></g><g
     id="g370"><path
       inkscape:connector-curvature="0"
       id="path368"
       d="m 107.091,143.257 v 0.43 l 0.277,0.179 v -0.426 c -0.01,-0.007 -0.018,-0.014 -0.029,-0.02 z"
       style="fill:#6082c0" /></g><g
     id="g380"><g
       aria-label="2019"
       style="font-style:normal;font-variant:normal;font-weight:normal;font-stretch:normal;font-size:17.76495361px;line-height:1.25;font-family:'DejaVu Serif';-inkscape-font-specification:'DejaVu Serif';letter-spacing:0px;word-spacing:0px;fill:#993022;fill-opacity:1;stroke:none;stroke-width:1px;stroke-linecap:butt;stroke-linejoin:miter;stroke-opacity:1"
       id="text989"><path
         d="m 265.56866,52.317007 v 2.26399 h -8.54418 q 0.13879,-1.283795 0.83273,-2.428802 0.69395,-1.153681 2.74108,-3.053351 1.64812,-1.53535 2.02111,-2.081831 0.50311,-0.754663 0.50311,-1.491978 0,-0.815384 -0.44239,-1.249099 -0.43371,-0.442388 -1.20573,-0.442388 -0.76333,0 -1.2144,0.459737 -0.45106,0.459738 -0.52045,1.526676 l -2.42881,-0.24288 q 0.21686,-2.012437 1.36187,-2.88854 1.145,-0.876104 2.86251,-0.876104 1.88233,0 2.95794,1.014892 1.07561,1.014893 1.07561,2.52422 0,0.858755 -0.31227,1.639441 -0.3036,0.772013 -0.97152,1.622093 -0.44239,0.563829 -1.59607,1.622093 -1.15369,1.058264 -1.46596,1.405236 -0.3036,0.346972 -0.49444,0.676595 z"
         style="font-style:normal;font-variant:normal;font-weight:bold;font-stretch:normal;font-family:Arial;-inkscape-font-specification:Arial;fill:#993022;fill-opacity:1;stroke-width:1px"
         id="path991" /><path
         d="m 271.34574,41.812437 q 1.84762,0 2.88854,1.318493 1.24042,1.561373 1.24042,5.178553 0,3.608506 -1.24909,5.187228 -1.03225,1.301144 -2.87987,1.301144 -1.8563,0 -2.99263,-1.422584 -1.13633,-1.431259 -1.13633,-5.091811 0,-3.591157 1.24909,-5.169879 1.03225,-1.301144 2.87987,-1.301144 z m 0,2.021111 q -0.44239,0 -0.78936,0.286251 -0.34697,0.277578 -0.53781,1.006218 -0.25155,0.945498 -0.25155,3.183466 0,2.237968 0.22553,3.079374 0.22553,0.832733 0.56383,1.11031 0.34697,0.277577 0.78936,0.277577 0.44239,0 0.78936,-0.277577 0.34697,-0.286252 0.53781,-1.014892 0.25155,-0.936824 0.25155,-3.174792 0,-2.237968 -0.22553,-3.0707 -0.22553,-0.841406 -0.5725,-1.118984 -0.3383,-0.286251 -0.78069,-0.286251 z"
         style="font-style:normal;font-variant:normal;font-weight:bold;font-stretch:normal;font-family:Arial;-inkscape-font-specification:Arial;fill:#993022;fill-opacity:1;stroke-width:1px"
         id="path993" /><path
         d="m 283.35096,54.580997 h -2.43747 V 45.39492 q -1.33585,1.249099 -3.14877,1.847625 V 45.0306 q 0.95417,-0.312275 2.07315,-1.179704 1.11899,-0.876104 1.53535,-2.038459 h 1.97774 z"
         style="font-style:normal;font-variant:normal;font-weight:bold;font-stretch:normal;font-family:Arial;-inkscape-font-specification:Arial;fill:#993022;fill-opacity:1;stroke-width:1px"
         id="path995" /><path
         d="m 287.05489,51.640412 2.3594,-0.260229 q 0.0867,0.719966 0.45107,1.066938 0.36432,0.346972 0.96284,0.346972 0.75467,0 1.2838,-0.693944 0.52913,-0.693943 0.67659,-2.879865 -0.91947,1.066938 -2.29868,1.066938 -1.50066,0 -2.59362,-1.153681 -1.08428,-1.162355 -1.08428,-3.018654 0,-1.934368 1.145,-3.114072 1.15368,-1.188378 2.93191,-1.188378 1.93437,0 3.1748,1.500653 1.24042,1.491978 1.24042,4.918324 0,3.487067 -1.29247,5.031091 -1.29247,1.544024 -3.36563,1.544024 -1.49198,0 -2.41145,-0.789361 -0.91948,-0.798035 -1.1797,-2.376756 z m 5.51685,-5.326016 q 0,-1.179704 -0.54648,-1.830276 -0.53781,-0.650572 -1.2491,-0.650572 -0.6766,0 -1.12766,0.537806 -0.44239,0.529132 -0.44239,1.743533 0,1.231749 0.48576,1.812927 0.48576,0.572504 1.2144,0.572504 0.70262,0 1.17971,-0.555155 0.48576,-0.555155 0.48576,-1.630767 z"
         style="font-style:normal;font-variant:normal;font-weight:bold;font-stretch:normal;font-family:Arial;-inkscape-font-specification:Arial;fill:#993022;fill-opacity:1;stroke-width:1px"
         id="path997" /></g></g><g
     id="g404"><path
       inkscape:connector-curvature="0"
       id="path382"
       d="m 29.226,89.54 c 0,-0.68 0.232,-1.289 0.691,-1.811 0.455,-0.519 1.12,-0.782 1.975,-0.782 0.102,0 0.196,0.003 0.282,0.009 0.084,0.006 0.178,0.018 0.279,0.036 l 0.098,0.017 v -1.935 l -0.075,-0.008 c -0.189,-0.019 -0.323,-0.031 -0.401,-0.037 -0.081,-0.006 -0.139,-0.01 -0.172,-0.01 -0.713,0 -1.352,0.248 -1.898,0.739 -0.398,0.357 -0.684,0.67 -0.865,0.948 v -1.465 h -1.834 v 10.086 h 1.922 V 89.54 Z"
       style="fill:#6082c0" /><path
       inkscape:connector-curvature="0"
       id="path384"
       d="m 37.547,95.681 c 0.533,0 1.018,-0.051 1.44,-0.15 0.792,-0.175 1.466,-0.519 2.002,-1.02 0.321,-0.289 0.616,-0.665 0.876,-1.118 0.261,-0.456 0.417,-0.876 0.463,-1.249 L 42.34,92.05 h -1.883 l -0.017,0.061 c -0.122,0.426 -0.332,0.806 -0.625,1.129 -0.523,0.557 -1.235,0.839 -2.116,0.839 -0.941,0 -1.645,-0.297 -2.09,-0.882 -0.438,-0.576 -0.682,-1.347 -0.725,-2.295 h 7.591 v -0.083 c 0,-1.001 -0.053,-1.743 -0.156,-2.2 -0.118,-0.677 -0.358,-1.277 -0.711,-1.783 -0.368,-0.535 -0.911,-0.976 -1.612,-1.311 -0.7,-0.334 -1.432,-0.504 -2.177,-0.504 -1.477,0 -2.691,0.511 -3.608,1.518 -0.914,1.005 -1.378,2.33 -1.378,3.937 0,1.633 0.461,2.923 1.371,3.833 0.909,0.91 2.034,1.372 3.343,1.372 z m -2.623,-6.27 c 0.047,-0.788 0.327,-1.449 0.833,-1.965 0.523,-0.534 1.179,-0.804 1.951,-0.804 1.078,0 1.857,0.392 2.316,1.163 0.239,0.401 0.398,0.941 0.472,1.606 z"
       style="fill:#6082c0" /><path
       inkscape:connector-curvature="0"
       id="path386"
       d="m 52.188,97.462 v 0 c 0.394,-0.738 0.593,-1.755 0.593,-3.022 v -9.104 h -1.785 v 1.108 c -0.298,-0.336 -0.594,-0.601 -0.882,-0.79 -0.619,-0.389 -1.353,-0.587 -2.181,-0.587 -1.223,0 -2.281,0.479 -3.145,1.425 -0.862,0.944 -1.299,2.272 -1.299,3.946 0,1.776 0.435,3.07 1.295,3.845 0.857,0.773 1.87,1.165 3.013,1.165 0.819,0 1.488,-0.128 1.989,-0.379 0.434,-0.217 0.818,-0.537 1.143,-0.953 0.002,1.212 -0.11,2.072 -0.334,2.557 -0.397,0.865 -1.255,1.304 -2.551,1.304 -0.821,0 -1.428,-0.179 -1.804,-0.532 -0.238,-0.228 -0.4,-0.558 -0.48,-0.983 l -0.013,-0.068 h -1.945 l 0.008,0.091 c 0.093,1.041 0.538,1.818 1.322,2.309 0.775,0.485 1.741,0.73 2.872,0.73 2.039,0 3.446,-0.694 4.184,-2.062 z m -1.192,-7.218 c 0,0.799 -0.141,1.507 -0.419,2.104 -0.501,1.059 -1.342,1.573 -2.572,1.573 -0.772,0 -1.394,-0.284 -1.851,-0.844 -0.461,-0.566 -0.694,-1.407 -0.694,-2.499 0,-0.935 0.119,-1.7 0.353,-2.274 0.443,-1.075 1.242,-1.597 2.445,-1.597 0.792,0 1.453,0.29 1.965,0.862 0.512,0.573 0.773,1.474 0.773,2.675 z"
       style="fill:#6082c0" /><rect
       id="rect388"
       height="10.04"
       width="1.951"
       style="fill:#6082c0"
       y="85.289001"
       x="54.824001" /><path
       inkscape:connector-curvature="0"
       id="path390"
       d="m 63.213,84.956 c -1.509,0 -2.728,0.507 -3.624,1.508 -0.894,0.998 -1.348,2.355 -1.348,4.035 0,1.569 0.431,2.838 1.28,3.772 0.852,0.936 2.016,1.41 3.46,1.41 1.729,0 3.025,-0.537 3.851,-1.596 0.821,-1.053 1.237,-2.403 1.237,-4.012 0,-1.67 -0.475,-2.954 -1.411,-3.818 -0.934,-0.862 -2.094,-1.299 -3.445,-1.299 z m 2.224,7.915 c -0.41,0.801 -1.181,1.208 -2.292,1.208 -1.013,0 -1.762,-0.343 -2.226,-1.019 -0.47,-0.685 -0.708,-1.556 -0.708,-2.589 0,-1.077 0.239,-2.008 0.71,-2.768 0.463,-0.747 1.218,-1.126 2.243,-1.126 1.156,0 1.981,0.446 2.452,1.325 0.301,0.565 0.453,1.312 0.453,2.218 10e-4,1.005 -0.212,1.931 -0.632,2.751 z"
       style="fill:#6082c0" /><path
       inkscape:connector-curvature="0"
       id="path392"
       d="m 74.804,85.021 c -0.685,0 -1.317,0.13 -1.877,0.387 -0.506,0.232 -0.994,0.603 -1.451,1.105 v -1.27 h -1.834 v 10.086 h 1.922 V 90.05 c 0,-0.638 0.043,-1.134 0.129,-1.475 0.084,-0.334 0.269,-0.663 0.552,-0.979 0.351,-0.394 0.764,-0.66 1.229,-0.791 0.258,-0.078 0.594,-0.117 1,-0.117 0.792,0 1.323,0.288 1.622,0.881 0.182,0.357 0.274,0.836 0.274,1.425 v 6.335 h 1.951 v -6.446 c 0,-1.009 -0.148,-1.798 -0.439,-2.345 -0.535,-1.007 -1.57,-1.517 -3.078,-1.517 z"
       style="fill:#6082c0" /><path
       inkscape:connector-curvature="0"
       id="path394"
       d="m 89.396,94.019 c -0.353,0.033 -0.582,0 -0.66,-0.109 -0.064,-0.09 -0.097,-0.214 -0.097,-0.368 v -5.715 c 0,-0.966 -0.397,-1.688 -1.181,-2.147 -0.776,-0.45 -1.796,-0.678 -3.031,-0.678 -1.068,0 -2.021,0.246 -2.832,0.732 -0.824,0.493 -1.259,1.377 -1.292,2.628 L 80.3,88.448 h 1.798 l 0.009,-0.073 c 0.062,-0.497 0.197,-0.874 0.4,-1.121 0.364,-0.449 0.997,-0.677 1.881,-0.677 0.772,0 1.371,0.126 1.781,0.374 0.402,0.243 0.597,0.626 0.597,1.17 0,0.264 -0.036,0.467 -0.108,0.604 -0.124,0.247 -0.368,0.389 -0.744,0.435 l -2.798,0.333 c -0.993,0.118 -1.808,0.439 -2.422,0.953 -0.622,0.52 -0.937,1.261 -0.937,2.201 0,0.859 0.319,1.585 0.949,2.157 0.627,0.57 1.445,0.859 2.43,0.859 0.815,0 1.572,-0.168 2.25,-0.499 0.608,-0.297 1.095,-0.647 1.451,-1.042 0.063,0.322 0.158,0.582 0.285,0.773 0.288,0.43 0.754,0.648 1.385,0.648 0.248,0 0.449,-0.009 0.596,-0.028 0.148,-0.019 0.361,-0.067 0.635,-0.141 l 0.061,-0.017 v -1.394 l -0.097,0.016 c -0.108,0.017 -0.21,0.031 -0.306,0.04 z m -2.678,-3.672 v 1.198 c 0,0.997 -0.463,1.695 -1.415,2.135 -0.565,0.265 -1.156,0.399 -1.758,0.399 -0.486,0 -0.912,-0.134 -1.266,-0.399 -0.351,-0.263 -0.523,-0.613 -0.523,-1.07 0,-0.607 0.252,-1.036 0.77,-1.312 0.31,-0.167 0.783,-0.292 1.405,-0.37 l 1.06,-0.129 c 0.325,-0.037 0.663,-0.1 1.004,-0.187 0.281,-0.074 0.523,-0.162 0.723,-0.265 z"
       style="fill:#6082c0" /><rect
       id="rect396"
       height="13.772"
       width="1.9220001"
       style="fill:#6082c0"
       y="81.556999"
       x="90.998001" /><path
       inkscape:connector-curvature="0"
       id="path398"
       d="m 102.197,90.294 v 0 c -0.443,-0.275 -1.321,-0.563 -2.608,-0.853 l -1.182,-0.269 c -0.506,-0.115 -0.893,-0.248 -1.15,-0.398 -0.435,-0.245 -0.646,-0.559 -0.646,-0.961 0,-0.368 0.16,-0.657 0.488,-0.881 0.333,-0.229 0.836,-0.345 1.495,-0.345 0.989,0 1.691,0.211 2.081,0.623 0.241,0.293 0.379,0.621 0.41,0.977 l 0.007,0.076 h 1.816 l 0.002,-0.082 c 0.013,-0.659 -0.209,-1.282 -0.661,-1.851 -0.718,-0.893 -1.9,-1.346 -3.513,-1.346 -1.232,0 -2.229,0.299 -2.962,0.889 -0.738,0.594 -1.113,1.383 -1.113,2.343 0,0.825 0.401,1.478 1.19,1.942 0.435,0.263 1.117,0.503 2.025,0.714 l 1.417,0.334 c 0.748,0.176 1.255,0.332 1.505,0.464 0.378,0.208 0.561,0.502 0.561,0.899 0,0.534 -0.233,0.917 -0.712,1.172 -0.49,0.261 -1.066,0.393 -1.712,0.393 -1.083,0 -1.852,-0.261 -2.284,-0.775 -0.233,-0.282 -0.378,-0.696 -0.429,-1.233 L 96.215,92.05 h -1.85 l 0.004,0.087 c 0.047,1.004 0.408,1.859 1.075,2.541 0.668,0.683 1.812,1.03 3.401,1.03 1.475,0 2.591,-0.331 3.318,-0.985 0.729,-0.655 1.099,-1.446 1.099,-2.35 -0.002,-0.939 -0.359,-1.639 -1.065,-2.079 z"
       style="fill:#6082c0" /><g
       id="g402"><path
         inkscape:connector-curvature="0"
         id="path400"
         d="m 55.8,83.672 c -0.84,0 -1.449,-0.442 -1.449,-1.051 0,-0.63 0.637,-1.123 1.449,-1.123 0.812,0 1.449,0.493 1.449,1.123 0,0.609 -0.61,1.051 -1.449,1.051"
         style="fill:#6082c0" /></g></g></g></svg>